<svg id="home" xmlns="http://www.w3.org/2000/svg" width="87.082" height="17.155" viewBox="0 0 87.082 17.155">
  <path id="パス_19" data-name="パス 19" d="M348.488,417.052c0,2.1,0,3.83.11,4.749.066.634.2,1.115.853,1.2a9.512,9.512,0,0,0,.985.088c.131,0,.175.065.175.131,0,.109-.11.174-.35.174-1.2,0-2.582-.065-2.692-.065s-1.487.065-2.144.065c-.24,0-.35-.043-.35-.174,0-.066.044-.131.175-.131a3.356,3.356,0,0,0,.656-.088c.438-.088.548-.569.635-1.2.109-.919.109-2.649.109-4.749v-2.3a.126.126,0,0,0-.131-.132h-9.277a.116.116,0,0,0-.132.132v2.3c0,2.1,0,3.83.11,4.749.065.634.2,1.115.853,1.2a9.488,9.488,0,0,0,.985.088c.131,0,.175.065.175.131,0,.109-.109.174-.35.174-1.2,0-2.582-.065-2.692-.065s-1.488.065-2.144.065c-.241,0-.35-.043-.35-.174,0-.066.044-.131.175-.131a3.346,3.346,0,0,0,.656-.088c.438-.088.547-.569.635-1.2.109-.919.109-2.649.109-4.749V413.2c0-3.413,0-4.026-.043-4.726-.044-.745-.219-1.094-.941-1.247a4.072,4.072,0,0,0-.745-.066c-.087,0-.174-.044-.174-.132,0-.131.109-.175.35-.175.984,0,2.363.066,2.472.066s1.488-.066,2.144-.066c.241,0,.351.044.351.175,0,.088-.088.132-.175.132a3.22,3.22,0,0,0-.547.066c-.591.109-.766.481-.81,1.247-.044.7-.044,1.313-.044,4.726v.459a.116.116,0,0,0,.132.132h9.277c.066,0,.131-.022.131-.132V413.2c0-3.413,0-4.026-.044-4.726-.043-.745-.218-1.094-.94-1.247a4.069,4.069,0,0,0-.744-.066c-.088,0-.175-.044-.175-.132,0-.131.109-.175.35-.175.985,0,2.363.066,2.472.066s1.489-.066,2.145-.066c.241,0,.35.044.35.175,0,.088-.087.132-.175.132a3.23,3.23,0,0,0-.547.066c-.591.109-.766.481-.81,1.247-.044.7-.044,1.313-.044,4.726Z" transform="translate(-333.369 -406.549)" fill="#fff"/>
  <path id="パス_20" data-name="パス 20" d="M366.867,406.549c4.924,0,8.6,3.107,8.6,8.206,0,4.9-3.457,8.949-8.73,8.949-5.995,0-8.49-4.661-8.49-8.6A8.471,8.471,0,0,1,366.867,406.549Zm.46,16.323c1.969,0,6.039-1.138,6.039-7.505,0-5.251-3.2-8.074-6.652-8.074-3.654,0-6.389,2.407-6.389,7.2C360.325,419.591,363.388,422.872,367.327,422.872Z" transform="translate(-333.369 -406.549)" fill="#fff"/>
  <path id="パス_21" data-name="パス 21" d="M401.5,420.6c.087.788.241,2.013,1.182,2.319a4.739,4.739,0,0,0,1.422.2c.109,0,.175.022.175.11,0,.131-.2.2-.46.2-.481,0-2.844-.023-3.654-.088-.5-.044-.612-.109-.612-.219,0-.088.043-.132.153-.153s.131-.394.087-.788l-1.05-11.356h-.066l-5.361,11.378c-.459.963-.525,1.16-.722,1.16-.153,0-.262-.219-.678-1.006-.569-1.073-2.451-4.858-2.56-5.077-.2-.394-2.648-5.645-2.888-6.236h-.088l-.875,10.153c-.022.35-.022.744-.022,1.116a.7.7,0,0,0,.569.677,4.034,4.034,0,0,0,.831.111c.088,0,.175.043.175.109,0,.153-.131.2-.394.2-.809,0-1.859-.065-2.034-.065-.2,0-1.248.065-1.839.065-.218,0-.371-.043-.371-.2,0-.066.109-.109.219-.109a2.757,2.757,0,0,0,.656-.067c.722-.13.787-.984.875-1.815l1.576-14.267c.021-.241.109-.394.24-.394s.219.088.328.329l6.7,13.763,6.433-13.742c.088-.2.175-.35.328-.35s.219.176.263.591Z" transform="translate(-333.369 -406.549)" fill="#fff"/>
  <path id="パス_22" data-name="パス 22" d="M412.662,413.2c0-3.413,0-4.026-.044-4.726-.044-.745-.219-1.094-.941-1.247a4.069,4.069,0,0,0-.744-.066c-.088,0-.175-.044-.175-.132,0-.131.109-.175.35-.175.5,0,1.094,0,1.575.023l.9.043c.152,0,4.507,0,5.01-.022a5.717,5.717,0,0,0,.941-.109c.11-.022.2-.109.306-.109.066,0,.088.087.088.2,0,.152-.11.415-.175,1.028-.022.219-.066,1.182-.109,1.444-.022.109-.066.241-.154.241-.131,0-.175-.11-.175-.284a2.328,2.328,0,0,0-.131-.788c-.153-.351-.372-.613-1.554-.745-.372-.044-2.756-.065-3-.065-.088,0-.131.065-.131.219v6.039c0,.153.021.219.131.219.284,0,2.975,0,3.479-.044.525-.043.831-.087,1.028-.306.154-.176.241-.285.328-.285.066,0,.11.044.11.176s-.11.5-.175,1.224c-.044.439-.088,1.248-.088,1.4,0,.175,0,.416-.153.416-.109,0-.153-.087-.153-.2a2.218,2.218,0,0,0-.088-.721c-.087-.307-.284-.679-1.137-.766-.591-.065-2.758-.109-3.129-.109a.138.138,0,0,0-.153.153v1.925c0,.744-.022,3.282,0,3.742.065,1.51.394,1.794,2.538,1.794a6.292,6.292,0,0,0,2.1-.24c.569-.242.832-.679.985-1.577.044-.24.087-.328.2-.328.131,0,.131.176.131.328,0,.176-.175,1.664-.284,2.124-.153.568-.329.568-1.182.568-1.641,0-2.844-.043-3.7-.066-.853-.043-1.378-.065-1.706-.065-.044,0-.416,0-.876.022-.437,0-.941.043-1.269.043-.241,0-.35-.043-.35-.174,0-.066.044-.131.175-.131a3.346,3.346,0,0,0,.656-.088c.438-.088.547-.569.635-1.2.11-.919.11-2.649.11-4.749Z" transform="translate(-333.369 -406.549)" fill="#fff"/>
</svg>
