<svg id="history" xmlns="http://www.w3.org/2000/svg" width="134.649" height="17.155" viewBox="0 0 134.649 17.155">
  <path id="パス_12" data-name="パス 12" d="M331.138,374.139c0,2.1,0,3.83.11,4.749.065.633.2,1.115.853,1.2a9.51,9.51,0,0,0,.985.088c.131,0,.175.065.175.131,0,.109-.11.174-.35.174-1.2,0-2.582-.065-2.692-.065s-1.488.065-2.144.065c-.241,0-.35-.044-.35-.174,0-.066.044-.131.175-.131a3.356,3.356,0,0,0,.656-.088c.438-.088.548-.57.635-1.2.109-.919.109-2.649.109-4.749v-2.3a.126.126,0,0,0-.131-.132h-9.277a.116.116,0,0,0-.132.132v2.3c0,2.1,0,3.83.11,4.749.065.633.2,1.115.853,1.2a9.487,9.487,0,0,0,.985.088c.131,0,.175.065.175.131,0,.109-.11.174-.35.174-1.2,0-2.582-.065-2.692-.065s-1.488.065-2.144.065c-.241,0-.35-.044-.35-.174,0-.066.044-.131.175-.131a3.356,3.356,0,0,0,.656-.088c.438-.088.547-.57.635-1.2.109-.919.109-2.649.109-4.749v-3.851c0-3.413,0-4.026-.044-4.726-.044-.745-.218-1.094-.941-1.248a4.146,4.146,0,0,0-.744-.065c-.087,0-.174-.044-.174-.132,0-.131.109-.175.35-.175.984,0,2.363.066,2.472.066s1.488-.066,2.144-.066c.241,0,.35.044.35.175,0,.088-.087.132-.174.132a3.3,3.3,0,0,0-.547.065c-.591.11-.766.482-.81,1.248-.044.7-.044,1.313-.044,4.726v.459a.116.116,0,0,0,.132.132h9.277a.116.116,0,0,0,.131-.132v-.459c0-3.413,0-4.026-.044-4.726-.043-.745-.218-1.094-.94-1.248a4.162,4.162,0,0,0-.744-.065c-.088,0-.176-.044-.176-.132,0-.131.11-.175.351-.175.984,0,2.363.066,2.472.066s1.489-.066,2.145-.066c.24,0,.35.044.35.175,0,.088-.088.132-.175.132a3.315,3.315,0,0,0-.547.065c-.591.11-.766.482-.81,1.248-.044.7-.044,1.313-.044,4.726Z" transform="translate(-316.019 -363.636)" fill="#fff"/>
  <path id="パス_13" data-name="パス 13" d="M345.229,374.139c0,2.1,0,3.83.109,4.749.065.633.2,1.115.853,1.2a9.51,9.51,0,0,0,.985.088c.131,0,.175.065.175.131,0,.109-.109.174-.35.174-1.2,0-2.582-.065-2.691-.065s-1.488.065-2.145.065c-.241,0-.35-.044-.35-.174,0-.066.044-.131.175-.131a3.346,3.346,0,0,0,.656-.088c.438-.088.547-.57.635-1.2.11-.919.11-2.649.11-4.749v-3.851c0-3.413,0-4.026-.044-4.726-.044-.745-.263-1.117-.744-1.226a2.9,2.9,0,0,0-.679-.087c-.087,0-.174-.044-.174-.132,0-.131.109-.175.35-.175.722,0,2.1.066,2.21.066s1.487-.066,2.144-.066c.24,0,.35.044.35.175,0,.088-.088.132-.175.132a3.315,3.315,0,0,0-.547.065c-.591.11-.766.482-.81,1.248-.043.7-.043,1.313-.043,4.726Z" transform="translate(-316.019 -363.636)" fill="#fff"/>
  <path id="パス_14" data-name="パス 14" d="M356.081,380.2c-.307-.153-.329-.241-.329-.831,0-1.1.088-1.97.11-2.32.022-.24.066-.35.175-.35.131,0,.153.066.153.24a3.83,3.83,0,0,0,.066.81c.328,1.62,1.772,2.232,3.238,2.232a2.921,2.921,0,0,0,3.13-2.91c0-1.509-.635-2.384-2.517-3.938l-.984-.81c-2.32-1.9-2.845-3.26-2.845-4.748,0-2.342,1.75-3.939,4.529-3.939a8.553,8.553,0,0,1,2.035.218,3.589,3.589,0,0,0,.766.111c.175,0,.219.043.219.152s-.088.832-.088,2.32c0,.35-.044.5-.153.5-.131,0-.153-.109-.175-.285a3.836,3.836,0,0,0-.285-1.093c-.131-.241-.722-1.16-2.734-1.16a2.488,2.488,0,0,0-2.692,2.538c0,1.248.569,2.036,2.67,3.676l.612.482c2.582,2.035,3.2,3.391,3.2,5.141a4.533,4.533,0,0,1-1.86,3.633,5.76,5.76,0,0,1-3.3.919A6.632,6.632,0,0,1,356.081,380.2Z" transform="translate(-316.019 -363.636)" fill="#fff"/>
  <path id="パス_15" data-name="パス 15" d="M379.077,374.139c0,2.1,0,3.83.11,4.749.065.633.2,1.115.853,1.2a9.494,9.494,0,0,0,.984.088c.132,0,.176.065.176.131,0,.109-.11.174-.351.174-1.2,0-2.581-.065-2.691-.065s-1.488.065-2.144.065c-.241,0-.35-.044-.35-.174,0-.066.044-.131.174-.131a3.356,3.356,0,0,0,.657-.088c.438-.088.547-.57.634-1.2.11-.919.11-2.649.11-4.749v-9.255l-3.239.043c-1.356.022-1.881.176-2.231.7a3.751,3.751,0,0,0-.372.679c-.066.174-.131.218-.219.218-.066,0-.11-.065-.11-.2,0-.219.438-2.1.482-2.275.044-.131.131-.416.219-.416a4.108,4.108,0,0,0,.962.262c.635.067,1.467.11,1.729.11h8.206a8.6,8.6,0,0,0,1.553-.11c.328-.044.525-.109.613-.109.109,0,.109.132.109.263,0,.656-.066,2.166-.066,2.407,0,.2-.065.284-.153.284-.109,0-.153-.065-.175-.372l-.022-.24c-.065-.656-.59-1.16-2.691-1.2l-2.757-.043Z" transform="translate(-316.019 -363.636)" fill="#fff"/>
  <path id="パス_16" data-name="パス 16" d="M400.125,363.636c4.924,0,8.6,3.107,8.6,8.206,0,4.9-3.457,8.949-8.731,8.949-5.995,0-8.49-4.661-8.49-8.6A8.47,8.47,0,0,1,400.125,363.636Zm.46,16.323c1.969,0,6.039-1.138,6.039-7.505,0-5.251-3.194-8.074-6.652-8.074-3.654,0-6.389,2.407-6.389,7.2C393.583,376.678,396.646,379.959,400.585,379.959Z" transform="translate(-316.019 -363.636)" fill="#fff"/>
  <path id="パス_17" data-name="パス 17" d="M418.483,370.288c0-3.413,0-4.026-.044-4.726-.044-.745-.219-1.094-.941-1.248a4.161,4.161,0,0,0-.744-.065c-.087,0-.175-.044-.175-.132,0-.131.109-.175.35-.175.985,0,2.363.066,2.473.066.241,0,1.9-.066,2.582-.066a6.743,6.743,0,0,1,4,.963,3.83,3.83,0,0,1,1.51,2.976c0,1.619-.679,3.238-2.648,5.055,1.795,2.3,3.282,4.245,4.551,5.6a4.524,4.524,0,0,0,2.67,1.575,5.144,5.144,0,0,0,.853.067c.11,0,.2.065.2.131,0,.13-.131.174-.525.174h-1.554a4.445,4.445,0,0,1-2.341-.416c-.941-.5-1.706-1.575-2.954-3.215-.919-1.2-1.947-2.67-2.385-3.239a.351.351,0,0,0-.284-.132l-2.692-.044c-.109,0-.153.067-.153.176v.525c0,2.1,0,3.83.11,4.749.065.633.2,1.115.853,1.2a9.487,9.487,0,0,0,.985.088c.131,0,.174.065.174.131,0,.109-.109.174-.35.174-1.2,0-2.581-.065-2.691-.065-.022,0-1.4.065-2.057.065-.24,0-.35-.044-.35-.174,0-.066.044-.131.176-.131a3.367,3.367,0,0,0,.656-.088c.437-.088.547-.57.635-1.2.109-.919.109-2.649.109-4.749Zm1.75,1.9a.286.286,0,0,0,.153.263,6.027,6.027,0,0,0,2.3.351,2.842,2.842,0,0,0,1.641-.416,4,4,0,0,0,1.335-3.37c0-2.735-1.445-4.376-3.785-4.376a6.6,6.6,0,0,0-1.467.131.263.263,0,0,0-.175.262Z" transform="translate(-316.019 -363.636)" fill="#fff"/>
  <path id="パス_18" data-name="パス 18" d="M441.873,374.817a4.631,4.631,0,0,0-.5-2.3c-.153-.35-3.085-5.165-3.851-6.3a6.107,6.107,0,0,0-1.488-1.619,2.09,2.09,0,0,0-.941-.35c-.109,0-.218-.044-.218-.153,0-.088.087-.154.284-.154.416,0,2.057.066,2.166.066.153,0,.985-.066,1.838-.066.241,0,.285.066.285.154s-.132.109-.329.2a.442.442,0,0,0-.284.394,1.866,1.866,0,0,0,.284.853c.35.635,3.633,6.279,4.027,6.914.415-.919,3.194-5.711,3.632-6.433a2.139,2.139,0,0,0,.372-1.116c0-.306-.088-.547-.35-.612-.2-.066-.329-.109-.329-.219,0-.088.132-.132.35-.132.57,0,1.27.066,1.445.066.131,0,1.706-.066,2.122-.066.154,0,.284.044.284.132,0,.11-.109.175-.284.175a2.087,2.087,0,0,0-1.007.306,4.158,4.158,0,0,0-1.159,1.116,69.731,69.731,0,0,0-4.179,6.958,5.226,5.226,0,0,0-.329,2.188V376.7c0,.35,0,1.27.066,2.189.044.633.241,1.115.9,1.2a9.487,9.487,0,0,0,.985.088c.131,0,.175.065.175.131,0,.109-.109.174-.35.174-1.2,0-2.582-.065-2.691-.065s-1.488.065-2.145.065c-.241,0-.35-.044-.35-.174,0-.066.044-.131.175-.131a3.346,3.346,0,0,0,.656-.088c.438-.088.635-.57.679-1.2.066-.919.066-1.839.066-2.189Z" transform="translate(-316.019 -363.636)" fill="#fff"/>
</svg>
