<svg xmlns="http://www.w3.org/2000/svg" width="129.792" height="22.297" viewBox="0 0 129.792 22.297">
  <g id="project" transform="translate(-327.693 -446.636)">
    <path id="パス_23" data-name="パス 23" d="M329.6,453.288c0-3.413,0-4.026-.044-4.726-.044-.745-.219-1.094-.941-1.248a4.161,4.161,0,0,0-.744-.065c-.088,0-.175-.044-.175-.132,0-.131.109-.175.35-.175.984,0,2.3.066,2.473.066.481,0,1.75-.066,2.756-.066,2.736,0,3.72.919,4.07,1.247a3.8,3.8,0,0,1,1.1,2.605A5.08,5.08,0,0,1,333.054,456a3.221,3.221,0,0,1-.46-.022c-.109,0-.24-.043-.24-.153,0-.175.131-.2.59-.2a3.633,3.633,0,0,0,3.785-3.566,4.641,4.641,0,0,0-1.225-3.37,3.8,3.8,0,0,0-3-1.094,2.7,2.7,0,0,0-.941.131c-.131.044-.175.2-.175.416v8.993c0,2.1,0,3.83.109,4.749.066.633.2,1.115.854,1.2a9.47,9.47,0,0,0,.984.088c.131,0,.175.065.175.131,0,.109-.109.174-.35.174-1.2,0-2.582-.065-2.691-.065-.066,0-1.445.065-2.1.065-.241,0-.35-.044-.35-.174,0-.066.044-.131.175-.131a3.366,3.366,0,0,0,.657-.088c.437-.088.546-.57.634-1.2.11-.919.11-2.649.11-4.749Z" fill="#fff"/>
    <path id="パス_24" data-name="パス 24" d="M348.107,453.288c0-3.413,0-4.026-.044-4.726-.044-.745-.219-1.094-.941-1.248a4.162,4.162,0,0,0-.744-.065c-.087,0-.175-.044-.175-.132,0-.131.109-.175.35-.175.985,0,2.364.066,2.473.066.241,0,1.9-.066,2.582-.066a6.743,6.743,0,0,1,4,.963,3.83,3.83,0,0,1,1.51,2.976c0,1.619-.679,3.238-2.648,5.055,1.8,2.3,3.282,4.245,4.551,5.6a4.524,4.524,0,0,0,2.67,1.575,5.144,5.144,0,0,0,.853.067c.11,0,.2.065.2.131,0,.13-.131.174-.525.174h-1.553a4.446,4.446,0,0,1-2.342-.416c-.941-.5-1.706-1.575-2.954-3.215-.919-1.2-1.947-2.67-2.385-3.239a.351.351,0,0,0-.284-.132l-2.692-.044c-.109,0-.153.067-.153.176v.525c0,2.1,0,3.83.11,4.749.065.633.2,1.115.853,1.2a9.487,9.487,0,0,0,.985.088c.131,0,.174.065.174.131,0,.109-.109.174-.35.174-1.2,0-2.581-.065-2.691-.065-.021,0-1.4.065-2.057.065-.24,0-.35-.044-.35-.174,0-.066.044-.131.176-.131a3.366,3.366,0,0,0,.656-.088c.437-.088.547-.57.635-1.2.109-.919.109-2.649.109-4.749Zm1.75,1.9a.286.286,0,0,0,.153.263,6.03,6.03,0,0,0,2.3.351,2.842,2.842,0,0,0,1.641-.416,4,4,0,0,0,1.335-3.37c0-2.735-1.444-4.376-3.785-4.376a6.6,6.6,0,0,0-1.467.131.263.263,0,0,0-.175.262Z" fill="#fff"/>
    <path id="パス_25" data-name="パス 25" d="M375.2,446.636c4.923,0,8.6,3.107,8.6,8.206,0,4.9-3.457,8.949-8.731,8.949-5.995,0-8.489-4.661-8.489-8.6A8.47,8.47,0,0,1,375.2,446.636Zm.459,16.323c1.97,0,6.039-1.138,6.039-7.505,0-5.251-3.194-8.074-6.651-8.074-3.654,0-6.39,2.407-6.39,7.2C368.652,459.678,371.716,462.959,375.654,462.959Z" fill="#fff"/>
    <path id="パス_26" data-name="パス 26" d="M395.39,458.539c0,3.545,0,4.9-.657,6.455a8.255,8.255,0,0,1-3.194,3.348,9.094,9.094,0,0,1-.854.548.322.322,0,0,1-.153.043.144.144,0,0,1-.153-.131c0-.132.109-.2.306-.328a4.26,4.26,0,0,0,.766-.614c1.422-1.443,2.1-2.6,2.1-8.249v-6.323c0-3.413,0-4.026-.044-4.726-.044-.745-.219-1.094-.941-1.248a4.161,4.161,0,0,0-.744-.065c-.088,0-.175-.044-.175-.132,0-.131.109-.175.35-.175.984,0,2.363.066,2.473.066s1.487-.066,2.144-.066c.24,0,.35.044.35.175,0,.088-.088.132-.175.132a3.315,3.315,0,0,0-.547.065c-.591.11-.766.482-.809,1.248-.044.7-.044,1.313-.044,4.726Z" fill="#fff"/>
    <path id="パス_27" data-name="パス 27" d="M407.073,453.288c0-3.413,0-4.026-.044-4.726-.044-.745-.218-1.094-.941-1.248a4.146,4.146,0,0,0-.744-.065c-.087,0-.175-.044-.175-.132,0-.131.11-.175.351-.175.5,0,1.094,0,1.575.023l.9.043c.153,0,4.508,0,5.011-.022a5.734,5.734,0,0,0,.941-.109c.109-.023.2-.109.306-.109.066,0,.087.086.087.2,0,.152-.109.415-.174,1.028-.022.219-.066,1.182-.11,1.444-.022.109-.066.241-.153.241-.131,0-.175-.11-.175-.284a2.362,2.362,0,0,0-.131-.789c-.154-.35-.372-.612-1.554-.744-.372-.044-2.757-.065-3-.065-.087,0-.131.065-.131.219v6.039c0,.153.022.218.131.218.285,0,2.976,0,3.479-.043.525-.043.832-.087,1.029-.306.153-.176.241-.285.328-.285.066,0,.109.044.109.175s-.109.5-.175,1.225c-.043.439-.087,1.248-.087,1.4,0,.176,0,.416-.153.416-.11,0-.154-.086-.154-.2a2.238,2.238,0,0,0-.087-.721c-.087-.307-.285-.679-1.138-.766-.59-.066-2.757-.109-3.129-.109a.138.138,0,0,0-.153.153v1.925c0,.744-.022,3.282,0,3.742.066,1.51.394,1.794,2.538,1.794a6.3,6.3,0,0,0,2.1-.24c.569-.242.831-.679.985-1.577.043-.24.087-.328.2-.328.132,0,.132.176.132.328,0,.176-.176,1.663-.285,2.123-.153.569-.328.569-1.182.569-1.64,0-2.844-.043-3.7-.066-.854-.044-1.379-.065-1.707-.065-.044,0-.416,0-.875.021-.438,0-.941.044-1.269.044-.241,0-.35-.044-.35-.174,0-.066.044-.131.175-.131a3.356,3.356,0,0,0,.656-.088c.438-.088.547-.57.635-1.2.109-.919.109-2.649.109-4.749Z" fill="#fff"/>
    <path id="パス_28" data-name="パス 28" d="M425.037,461.428a8.382,8.382,0,0,1-2.648-6.477,8.737,8.737,0,0,1,2.451-5.973c1.313-1.314,3.3-2.342,6.674-2.342a18.857,18.857,0,0,1,3.173.262,18.664,18.664,0,0,0,2.231.329c.241.022.285.109.285.241,0,.175-.066.437-.11,1.225-.044.722-.044,1.925-.065,2.253s-.066.46-.2.46c-.153,0-.175-.153-.175-.46a3.029,3.029,0,0,0-.919-2.231,7.291,7.291,0,0,0-4.377-1.247c-2.91,0-4.266.853-5.032,1.6-1.6,1.533-1.97,3.48-1.97,5.712a7.9,7.9,0,0,0,7.9,8.008c1.641,0,2.932-.2,3.808-1.094a4.174,4.174,0,0,0,.81-1.837c.043-.242.087-.329.218-.329.11,0,.154.154.154.329a22.685,22.685,0,0,1-.482,2.8c-.131.415-.175.459-.569.635a12.678,12.678,0,0,1-3.939.5C428.976,463.791,426.766,462.981,425.037,461.428Z" fill="#fff"/>
    <path id="パス_29" data-name="パス 29" d="M451.621,457.139c0,2.1,0,3.83.109,4.749.066.633.2,1.115.853,1.2a9.535,9.535,0,0,0,.985.088c.132,0,.175.065.175.131,0,.109-.109.174-.349.174-1.2,0-2.582-.065-2.692-.065s-1.488.065-2.144.065c-.241,0-.35-.044-.35-.174,0-.066.043-.131.174-.131a3.356,3.356,0,0,0,.657-.088c.438-.088.547-.57.634-1.2.11-.919.11-2.649.11-4.749v-9.255l-3.239.043c-1.356.022-1.881.176-2.232.7a3.889,3.889,0,0,0-.372.679c-.065.174-.13.218-.218.218-.066,0-.11-.065-.11-.2,0-.219.438-2.1.482-2.275.044-.131.131-.416.218-.416a4.141,4.141,0,0,0,.963.262c.635.067,1.466.11,1.729.11h8.205a8.606,8.606,0,0,0,1.554-.11c.328-.044.525-.109.612-.109.11,0,.11.132.11.263,0,.656-.066,2.166-.066,2.407,0,.2-.065.284-.153.284-.109,0-.153-.065-.175-.372l-.022-.24c-.065-.656-.59-1.16-2.691-1.2l-2.757-.043Z" fill="#fff"/>
  </g>
</svg>
