<svg xmlns="http://www.w3.org/2000/svg" width="284.077" height="40.923" viewBox="0 0 284.077 40.923">
  <g id="header_logo" transform="translate(-526.488 -202.492)">
    <g id="グループ_1" data-name="グループ 1">
      <path id="パス_1" data-name="パス 1" d="M651.621,234.86l.046,5.336c1.36.353,1.542.485,1.542.926,0,1.059-.816,1.411-5.58,1.411H635.063c-4.582,0-5.126-.264-5.126-3.263v-2.6H617.6v1.94c0,.045-.318.794-2.359.794V224.188l2.677,1.235h12.021v-3.44h-9.8v.838a2.224,2.224,0,0,1-1.995.883h-.409V212.811a36.944,36.944,0,0,1-6.17,3.749l-.5-.662a40.2,40.2,0,0,0,13.111-13.406l3.81,1.411c-.136.309-.362.486-.907.486a6.589,6.589,0,0,1-.816-.089c-.454.618-.953,1.235-1.452,1.9h10.978l1.633-1.632,3.085,2.866c-.318.309-.907.353-1.769.4a46.2,46.2,0,0,1-5.081,3.572h9.254l1.225-1.587,3.584,2.513a4.194,4.194,0,0,1-1.906.838v9.216a2.952,2.952,0,0,1-2.449.883v-1.28H632.387v3.44h12.974l1.27-1.587,3.584,2.513a3.763,3.763,0,0,1-1.951.882v10.407c0,.133-.725.883-2.45.883v-1.853H632.387v2.558c0,1.279.091,1.279,2.586,1.279H647.9c.771,0,1.316,0,1.679-.441a20.532,20.532,0,0,0,1.678-5.2Zm-21.684-8.334H617.6v3.924h12.339Zm-12.339,9.04h12.339v-4.013H617.6ZM632.387,211.4a38.01,38.01,0,0,0,3.175-4.057H623.768a37.97,37.97,0,0,1-3.856,3.7l.771.353Zm-12.249,1.1v3.573h9.8V212.5Zm0,8.379h9.8v-3.7h-9.8Zm23.227-8.379H632.387v3.573h10.978Zm-10.978,8.379h10.978v-3.7H632.387Zm13.427,5.645H632.387v3.924h13.427Zm-13.427,9.04h13.427v-4.013H632.387Z"/>
      <path id="パス_2" data-name="パス 2" d="M700.928,213.385l4.445.352c-.09.662-.5.971-1.95,1.1v26.811c0,.088-.318.971-2.495.971v-4.851H669.762v4.63c0,.132-.317.926-2.449.926V213.561l4.445.353c-.09.661-.544.97-2,1.1v21.652h14.245V203.242l4.673.4c-.046.7-.636,1.014-2.178,1.191v31.838h14.426Z"/>
      <path id="パス_3" data-name="パス 3" d="M723.016,228.775c-.136.485-.409.749-1.452.749-1.088,3.748-2.767,7.762-4.717,10.187l-.772-.4a44.69,44.69,0,0,0,3.312-11.421Zm-6.579-18.786a14.239,14.239,0,0,1,3.584,1.543c1.18-2.425,2.632-5.821,3.811-8.819l3.811,1.455c-.181.529-.544.706-1.587.618a86.677,86.677,0,0,1-5.081,7.408,4.118,4.118,0,0,1,1.859,3.043c0,.793-.453,1.323-1.088,1.323a1.407,1.407,0,0,1-.908-.353,14.088,14.088,0,0,0-4.718-5.777Zm12.749,7.982c4.717,2.16,6.214,4.718,6.214,6.35,0,.97-.545,1.587-1.224,1.587a1.633,1.633,0,0,1-1.044-.441,9.6,9.6,0,0,0-1.18-2.822l-4.672.662v19.315c0,.044-.317.793-2.4.793V223.659c-1.9.221-3.947.529-6.261.794a1.351,1.351,0,0,1-1.089.882l-1.269-3.087c1.089,0,2.722,0,4.672-.088a158.966,158.966,0,0,0,8.619-14.6l3.856,1.809a1.134,1.134,0,0,1-1.043.484,5.182,5.182,0,0,1-.771-.087,130.324,130.324,0,0,1-9.3,12.347c2.677-.088,5.852-.22,9.163-.353a19.741,19.741,0,0,0-2.722-3.4Zm.952,9.834c3.765,2.69,4.99,5.336,4.99,7.055,0,1.279-.635,2.073-1.406,2.073a1.569,1.569,0,0,1-1.134-.574,21.391,21.391,0,0,0-3.04-8.29Zm24.769,10.406,3.765,2.559c-.362.705-.861.969-2.086.969H732.5l-.317-1.1h11.749V208.093h-9.662l-.273-1.147h17.828l1.86-2.337,3.63,2.47c-.364.705-.863,1.014-2.087,1.014h-8.8v32.544h6.532Z" fill="#a61a19"/>
      <path id="パス_4" data-name="パス 4" d="M767.378,227.143c8.529-3.528,16.83-9.922,20.143-15.566l4.4,1.014c-.136.529-.589.749-1.815.838,4.447,4.806,12.068,8.863,20.46,11.068l-.09.662a3.1,3.1,0,0,0-2.314,1.984c-8.166-3.087-15.106-7.629-18.872-13.229-4.31,5.2-12.475,10.892-21.684,14.023Zm12.385-18.124H768.24l-.272-1.1h11.795v-5.292l4.264.308c-.09.662-.408.882-1.814,1.059v3.925h13.019v-5.292l4.264.308c-.045.662-.408.838-1.769,1.015v3.969h6.215l1.951-2.558,3.856,2.734c-.363.661-.862.926-2.133.926h-9.889v4.057c0,.088-.318.882-2.495.882v-4.939H782.213v4.233c0,.177-.409.838-2.45.838Zm3.719,23.989a1.024,1.024,0,0,1-.952.485,5.946,5.946,0,0,1-.771-.088,32.536,32.536,0,0,1-11.931,8.731l-.5-.705A31.538,31.538,0,0,0,779.763,231.2Zm19.416-5.292c-.363.662-.907.971-2.131.971H790.061v14.022c0,.089-.364.706-2.451.706V228.687H775.181l-.318-1.1H787.61v-7.276l4.22.353c-.091.573-.5.881-1.769.97v5.953h7.394l1.859-2.117Zm-7.485,4.145c8.847,2.646,11.613,6.615,11.613,8.732,0,.882-.5,1.411-1.178,1.411a1.861,1.861,0,0,1-1-.309c-1.407-3.263-6.125-7.276-9.754-9.3Z" fill="#a61a19"/>
    </g>
    <g id="グループ_2" data-name="グループ 2">
      <path id="パス_5" data-name="パス 5" d="M526.488,229.246H541.16l.993-1.261,1.853,1.319c-.152.3-.382.439-.936.439H526.6Zm1.184-12.78h12.495l.955-1.2,1.776,1.261c-.152.287-.382.42-.917.42H527.806Zm1.319,5.979h9.914l.917-1.165,1.758,1.2c-.153.306-.363.44-.917.44H529.124Z"/>
      <path id="パス_6" data-name="パス 6" d="M564.25,229.361l1.623,1.127c-.152.267-.363.42-.9.42H548.3l-.134-.477h8.272v-2.274h-6.648l-.134-.477h6.782v-2.044h-4.413v.515c0,.019-.153.364-1.032.364v-6.9l1.166.535h4.279v-1.911H548.6l-.134-.477h7.966v-1.853c-2.14.21-4.394.382-6.534.439l-.057-.382A84.711,84.711,0,0,0,562.4,214l1.166,1.166a.444.444,0,0,1-.325.095,1.365,1.365,0,0,1-.612-.153c-1.47.248-3.247.478-5.138.688v1.968h5.731l.821-1.051,1.586,1.108c-.153.267-.363.42-.9.42h-7.24v1.911H561.8l.535-.688,1.528,1.089a1.493,1.493,0,0,1-.821.382v5.158a1.513,1.513,0,0,1-1.051.306v-.764h-4.508v2.044h4.795l.764-.974,1.528,1.031c-.134.286-.363.42-.9.42h-6.189v2.274h5.922Zm-7.814-8.731h-4.413v1.987h4.413Zm-4.413,4.509h4.413V223.1h-4.413Zm9.972-4.509h-4.508v1.987h4.508Zm-4.508,4.509h4.508V223.1h-4.508Z"/>
      <path id="パス_7" data-name="パス 7" d="M576.355,227.317a.358.358,0,0,1-.363.191,1.548,1.548,0,0,1-.363-.057,16.787,16.787,0,0,1-5.521,3.763l-.191-.287a17.592,17.592,0,0,0,4.91-4.489Zm9.609-3.248,1.662,1.146c-.153.287-.382.44-.917.44h-7.374v5.712a1.094,1.094,0,0,1-.9.324h-.153v-6.036h-5.941v.821c0,.039-.134.4-1.031.4V215.7l1.853.152c-.019.287-.211.42-.822.478v8.845h12.742Zm-9.877-1.031v.783c0,.019-.133.4-1.031.4v-9.705l1.146.554h7.145l.554-.707,1.509,1.108a1.561,1.561,0,0,1-.841.382v7.795c0,.057-.3.4-1.031.4v-1.012Zm7.451-7.489h-7.451v2.006h7.451Zm-7.451,4.489h7.451v-2.006h-7.451Zm0,2.522h7.451v-2.044h-7.451Zm5.33,4.012c4.28,1.261,5.579,3.018,5.579,3.9,0,.363-.191.573-.5.573a.919.919,0,0,1-.42-.115,16.121,16.121,0,0,0-4.776-4.107Z"/>
    </g>
  </g>
</svg>
