<svg xmlns="http://www.w3.org/2000/svg" width="137" height="48.112" viewBox="0 0 137 48.112">
  <g id="home" transform="translate(-599 -359.888)">
    <g id="グループ_3" data-name="グループ 3">
      <path id="パス_8" data-name="パス 8" d="M623.846,375.246c0,3.072,0,5.6.16,6.943.1.929.288,1.632,1.248,1.761a13.958,13.958,0,0,0,1.44.128c.192,0,.256.1.256.192,0,.16-.16.255-.513.255-1.759,0-3.775-.1-3.935-.1s-2.176.1-3.136.1c-.352,0-.512-.063-.512-.255,0-.1.064-.192.256-.192a4.941,4.941,0,0,0,.96-.128c.64-.129.8-.832.928-1.761.16-1.343.16-3.871.16-6.943v-3.359a.185.185,0,0,0-.192-.193H607.4a.169.169,0,0,0-.192.193v3.359c0,3.072,0,5.6.16,6.943.1.929.288,1.632,1.248,1.761a13.959,13.959,0,0,0,1.44.128c.192,0,.256.1.256.192,0,.16-.16.255-.512.255-1.76,0-3.776-.1-3.936-.1s-2.176.1-3.135.1c-.353,0-.513-.063-.513-.255,0-.1.064-.192.257-.192a4.951,4.951,0,0,0,.96-.128c.639-.129.8-.832.927-1.761.161-1.343.161-3.871.161-6.943v-5.631c0-4.992,0-5.887-.065-6.912-.064-1.088-.32-1.6-1.375-1.824a6,6,0,0,0-1.088-.1c-.129,0-.257-.063-.257-.191,0-.193.161-.257.513-.257,1.439,0,3.455.1,3.615.1s2.176-.1,3.136-.1c.352,0,.512.064.512.257,0,.128-.128.191-.256.191a4.757,4.757,0,0,0-.8.1c-.864.16-1.12.7-1.184,1.824-.064,1.025-.064,1.92-.064,6.912v.672a.169.169,0,0,0,.192.192h13.567a.169.169,0,0,0,.192-.192v-.672c0-4.992,0-5.887-.064-6.912-.064-1.088-.32-1.6-1.376-1.824a5.985,5.985,0,0,0-1.088-.1c-.128,0-.255-.063-.255-.191,0-.193.159-.257.511-.257,1.44,0,3.456.1,3.616.1s2.176-.1,3.136-.1c.352,0,.512.064.512.257,0,.128-.128.191-.256.191a4.758,4.758,0,0,0-.8.1c-.864.16-1.12.7-1.184,1.824-.064,1.025-.064,1.92-.064,6.912Z"/>
      <path id="パス_9" data-name="パス 9" d="M650.726,359.888c7.2,0,12.575,4.543,12.575,12,0,7.167-5.055,13.087-12.767,13.087-8.767,0-12.415-6.816-12.415-12.576C638.119,367.215,641.9,359.888,650.726,359.888Zm.672,23.87c2.88,0,8.831-1.664,8.831-10.976,0-7.678-4.671-11.806-9.727-11.806-5.343,0-9.343,3.519-9.343,10.527C641.159,378.958,645.639,383.758,651.4,383.758Z"/>
      <path id="パス_10" data-name="パス 10" d="M701.381,380.43c.128,1.152.352,2.944,1.728,3.391a6.94,6.94,0,0,0,2.08.288c.16,0,.256.033.256.161,0,.192-.288.288-.672.288-.7,0-4.16-.033-5.343-.128-.737-.065-.9-.16-.9-.321,0-.128.065-.191.225-.223s.191-.576.128-1.153l-1.536-16.606h-.1l-7.84,16.639c-.672,1.408-.768,1.7-1.056,1.7-.224,0-.383-.32-.992-1.472-.832-1.568-3.584-7.1-3.744-7.424-.287-.576-3.871-8.255-4.223-9.119h-.128l-1.28,14.847c-.032.512-.032,1.088-.032,1.632a1.025,1.025,0,0,0,.832.992,5.9,5.9,0,0,0,1.216.16c.128,0,.256.064.256.159,0,.225-.192.288-.576.288-1.184,0-2.72-.1-2.976-.1-.288,0-1.824.1-2.688.1-.32,0-.544-.063-.544-.288,0-.1.16-.159.32-.159a4.071,4.071,0,0,0,.96-.1c1.056-.191,1.152-1.439,1.28-2.655l2.3-20.862c.032-.353.16-.576.352-.576s.32.128.48.479l9.791,20.127,9.407-20.1c.129-.288.257-.511.481-.511s.32.256.383.863Z"/>
      <path id="パス_11" data-name="パス 11" d="M717.7,369.615c0-4.992,0-5.887-.063-6.912-.065-1.088-.321-1.6-1.376-1.824a5.985,5.985,0,0,0-1.088-.1c-.128,0-.256-.063-.256-.191,0-.193.159-.257.512-.257.736,0,1.6,0,2.3.032l1.312.065c.225,0,6.592,0,7.328-.033a8.436,8.436,0,0,0,1.376-.16c.16-.032.288-.16.447-.16.1,0,.128.128.128.288,0,.225-.159.609-.256,1.5-.031.32-.095,1.729-.159,2.112-.032.161-.1.352-.224.352-.192,0-.256-.16-.256-.416a3.431,3.431,0,0,0-.193-1.151c-.223-.513-.544-.9-2.271-1.088-.544-.065-4.031-.1-4.384-.1-.128,0-.191.1-.191.32v8.831c0,.225.031.321.191.321.416,0,4.352,0,5.088-.065.767-.063,1.216-.128,1.5-.447.223-.256.351-.416.479-.416.1,0,.16.063.16.256s-.16.736-.255,1.792c-.064.639-.128,1.823-.128,2.048,0,.256,0,.607-.224.607-.16,0-.225-.128-.225-.288a3.294,3.294,0,0,0-.127-1.056c-.128-.448-.417-.992-1.665-1.12-.863-.1-4.031-.159-4.575-.159a.2.2,0,0,0-.223.224v2.815c0,1.088-.033,4.8,0,5.472.1,2.208.575,2.624,3.711,2.624a9.178,9.178,0,0,0,3.072-.352c.832-.352,1.216-.992,1.439-2.3.065-.352.128-.48.288-.48.193,0,.193.256.193.48a31.311,31.311,0,0,1-.416,3.1c-.224.832-.481.832-1.728.832-2.4,0-4.16-.064-5.408-.1-1.248-.063-2.016-.1-2.5-.1-.064,0-.608,0-1.279.032-.64,0-1.376.063-1.857.063-.351,0-.512-.063-.512-.255,0-.1.065-.192.256-.192a4.941,4.941,0,0,0,.96-.128c.641-.129.8-.832.928-1.761.16-1.343.16-3.871.16-6.943Z"/>
    </g>
    <rect id="長方形_3" data-name="長方形 3" width="137" height="1" transform="translate(599 407)"/>
  </g>
</svg>
